<svg width="64" height="64" viewBox="0 0 64 64" fill="none" xmlns="http://www.w3.org/2000/svg">
<rect width="64" height="64" fill="#ED78ED"/>
<path d="M20.8422 38.128L22.3302 35.464C23.4822 36.52 25.3062 37.288 27.0342 37.288C28.6422 37.288 29.6262 36.568 29.6262 35.488C29.6262 32.464 21.8502 33.88 21.7542 28.168C21.6822 25.024 24.0102 23.152 27.6342 23.152C29.7942 23.152 31.3302 23.728 32.7462 24.856L31.2102 27.664C30.1302 26.656 28.8342 26.2 27.6342 26.2C26.1462 26.2 25.3302 26.896 25.3302 27.856C25.3302 30.76 33.2022 29.416 33.2022 34.984C33.2022 38.032 30.9222 40.264 26.8422 40.264C23.9622 40.264 22.0182 39.232 20.8422 38.128ZM42.9638 27.4V30.016H39.6758V35.752C39.6758 36.976 39.9878 37.456 41.2598 37.456C41.7398 37.456 42.2438 37.384 42.8438 37.24V39.904C42.2198 40.072 41.1878 40.288 39.9638 40.288C37.3238 40.288 36.2918 39.28 36.2918 36.184V30.016H33.9638V27.4H36.2918V24.208H39.6758V27.4H42.9638Z" fill="black"/>
</svg>
