<svg width="104" height="104" viewBox="0 0 104 104" fill="none" xmlns="http://www.w3.org/2000/svg">
<rect width="104" height="104" fill="#EA752A"/>
<path d="M60.096 42.438L55.602 46.302C54.048 43.782 51.612 42.102 48.42 42.102C43.758 42.102 40.272 45.672 40.272 51.468C40.272 57.306 43.758 60.918 48.42 60.918C51.906 60.918 54.552 58.86 55.98 56.088L60.726 59.364C58.542 64.026 53.838 66.504 48.42 66.504C40.524 66.504 33.972 61.128 33.972 51.468C33.972 41.85 40.524 36.516 48.42 36.516C53.376 36.516 57.828 38.49 60.096 42.438ZM63.2788 66V35.13H69.1588V66H63.2788Z" fill="black"/>
</svg>
