<svg width="104" height="104" viewBox="0 0 104 104" fill="none" xmlns="http://www.w3.org/2000/svg">
<rect width="104" height="104" fill="#1BE1F2"/>
<path d="M38.3625 66.504C30.2565 66.504 23.4105 61.128 23.4105 51.468C23.4105 41.85 30.2565 36.516 38.3625 36.516C46.3845 36.516 53.2725 41.85 53.2725 51.468C53.2725 61.128 46.3845 66.504 38.3625 66.504ZM38.3625 60.918C43.1085 60.918 46.9305 57.264 46.9305 51.468C46.9305 45.714 43.1085 42.102 38.3625 42.102C33.5325 42.102 29.7105 45.714 29.7105 51.468C29.7105 57.264 33.5325 60.918 38.3625 60.918ZM70.751 43.446C76.841 43.446 80.873 48.234 80.873 54.87C80.873 61.548 76.841 66.42 70.751 66.42C67.517 66.42 64.913 65.034 63.191 62.766V74.232H57.311V43.95H62.855V47.52C64.577 44.958 67.307 43.446 70.751 43.446ZM68.819 61.464C72.431 61.464 74.741 58.818 74.741 54.87C74.741 51.048 72.431 48.318 68.819 48.318C65.165 48.318 62.981 51.048 62.981 54.87C62.981 58.818 65.165 61.464 68.819 61.464Z" fill="black"/>
</svg>
