<svg width="104" height="104" viewBox="0 0 104 104" fill="none" xmlns="http://www.w3.org/2000/svg">
<rect width="104" height="104" fill="#FB51A2"/>
<path d="M36.226 37.02C46.054 37.02 51.724 42.48 51.724 51.468C51.724 60.498 46.054 66 36.226 66H26.776V37.02H36.226ZM32.656 60.582H36.226C42.946 60.582 45.298 56.382 45.298 51.468C45.298 46.596 42.946 42.438 36.226 42.438H32.656V60.582ZM72.5045 47.184V43.95H78.1325V66H72.5885V62.724C70.8665 65.076 68.2205 66.504 64.9025 66.504C58.8125 66.504 54.8225 61.674 54.8225 55.038C54.8225 48.36 58.8125 43.488 64.9025 43.488C68.1365 43.488 70.7825 44.874 72.5045 47.184ZM66.8345 61.59C70.4885 61.59 72.6725 58.902 72.6725 55.038C72.6725 51.09 70.4885 48.444 66.8345 48.444C63.2225 48.444 60.9125 51.09 60.9125 55.038C60.9125 58.902 63.2225 61.59 66.8345 61.59Z" fill="black"/>
</svg>
