<svg width="104" height="104" viewBox="0 0 104 104" fill="none" xmlns="http://www.w3.org/2000/svg">
<rect width="104" height="104" fill="#ABD904"/>
<path d="M36.2466 37.02C46.0746 37.02 51.7446 42.48 51.7446 51.468C51.7446 60.498 46.0746 66 36.2466 66H26.7966V37.02H36.2466ZM32.6766 60.582H36.2466C42.9666 60.582 45.3186 56.382 45.3186 51.468C45.3186 46.596 42.9666 42.438 36.2466 42.438H32.6766V60.582ZM69.2129 43.446C75.3029 43.446 79.3349 48.234 79.3349 54.87C79.3349 61.548 75.3029 66.42 69.2129 66.42C65.9789 66.42 63.3749 65.034 61.6529 62.766V74.232H55.7729V43.95H61.3169V47.52C63.0389 44.958 65.7689 43.446 69.2129 43.446ZM67.2809 61.464C70.8929 61.464 73.2029 58.818 73.2029 54.87C73.2029 51.048 70.8929 48.318 67.2809 48.318C63.6269 48.318 61.4429 51.048 61.4429 54.87C61.4429 58.818 63.6269 61.464 67.2809 61.464Z" fill="black"/>
</svg>
