<svg width="104" height="104" viewBox="0 0 104 104" fill="none" xmlns="http://www.w3.org/2000/svg">
<rect width="104" height="104" fill="#28BD5A"/>
<path d="M38.8658 37.02C43.9058 37.02 50.3318 38.658 50.3318 46.974C50.3318 55.29 43.9058 57.18 38.8658 57.18H34.6658V66H28.7858V37.02H38.8658ZM34.6658 52.182H38.4038C41.8898 52.182 43.9058 50.922 43.9058 47.226C43.9058 43.614 41.8898 42.438 38.4038 42.438H34.6658V52.182ZM70.2438 46.932V35.13H76.1238V66H70.5798V62.682C68.8578 65.076 66.1698 66.504 62.8518 66.504C56.7618 66.504 52.7718 61.674 52.7718 55.038C52.7718 48.36 56.7618 43.488 62.8518 43.488C65.9598 43.488 68.5218 44.79 70.2438 46.932ZM64.7838 61.59C68.4378 61.59 70.6218 58.902 70.6218 55.038C70.6218 51.09 68.4378 48.444 64.7838 48.444C61.1718 48.444 58.8618 51.09 58.8618 55.038C58.8618 58.902 61.1718 61.59 64.7838 61.59Z" fill="black"/>
</svg>
