<svg width="104" height="104" viewBox="0 0 104 104" fill="none" xmlns="http://www.w3.org/2000/svg">
<rect width="104" height="104" fill="#FFD700"/>
<path d="M35.4064 62.724L38.0104 58.062C40.0264 59.91 43.2184 61.254 46.2424 61.254C49.0564 61.254 50.7784 59.994 50.7784 58.104C50.7784 52.812 37.1704 55.29 37.0024 45.294C36.8764 39.792 40.9504 36.516 47.2924 36.516C51.0724 36.516 53.7604 37.524 56.2384 39.498L53.5504 44.412C51.6604 42.648 49.3924 41.85 47.2924 41.85C44.6884 41.85 43.2604 43.068 43.2604 44.748C43.2604 49.83 57.0364 47.478 57.0364 57.222C57.0364 62.556 53.0464 66.462 45.9064 66.462C40.8664 66.462 37.4644 64.656 35.4064 62.724ZM63.8184 41.346C61.7604 41.346 60.0804 40.17 60.0804 38.028C60.0804 35.928 61.7604 34.752 63.8184 34.752C65.8344 34.752 67.5144 35.928 67.5144 38.028C67.5144 40.17 65.8344 41.346 63.8184 41.346ZM60.8784 66V43.95H66.7584V66H60.8784Z" fill="black"/>
</svg>
