<svg width="104" height="104" viewBox="0 0 104 104" fill="none" xmlns="http://www.w3.org/2000/svg">
<rect width="104" height="104" fill="#ED78ED"/>
<path d="M32.4738 62.724L35.0778 58.062C37.0938 59.91 40.2858 61.254 43.3098 61.254C46.1238 61.254 47.8458 59.994 47.8458 58.104C47.8458 52.812 34.2378 55.29 34.0698 45.294C33.9438 39.792 38.0178 36.516 44.3598 36.516C48.1398 36.516 50.8278 37.524 53.3058 39.498L50.6178 44.412C48.7278 42.648 46.4598 41.85 44.3598 41.85C41.7558 41.85 40.3278 43.068 40.3278 44.748C40.3278 49.83 54.1038 47.478 54.1038 57.222C54.1038 62.556 50.1138 66.462 42.9738 66.462C37.9338 66.462 34.5318 64.656 32.4738 62.724ZM71.1866 43.95V48.528H65.4326V58.566C65.4326 60.708 65.9786 61.548 68.2046 61.548C69.0446 61.548 69.9266 61.422 70.9766 61.17V65.832C69.8846 66.126 68.0786 66.504 65.9366 66.504C61.3166 66.504 59.5106 64.74 59.5106 59.322V48.528H55.4366V43.95H59.5106V38.364H65.4326V43.95H71.1866Z" fill="black"/>
</svg>
